<svg xmlns="http://www.w3.org/2000/svg" version="1.1" xmlns:xlink="http://www.w3.org/1999/xlink" width="200" height="200"><svg xmlns="http://www.w3.org/2000/svg" version="1.1" xmlns:xlink="http://www.w3.org/1999/xlink" viewBox="0 0 200 200"><rect width="200" height="200" fill="url('#gradient')"></rect><defs><linearGradient id="SvgjsLinearGradient1001" gradientTransform="rotate(45 0.5 0.5)"><stop offset="0%" stop-color="#2c3f52"></stop><stop offset="100%" stop-color="#2c3448"></stop></linearGradient></defs><g><g fill="#3498db" transform="matrix(1.9496509414004655,0,0,1.9496509414004655,7.906908738706434,109.90235080420403)" stroke="#27354b" stroke-width="0"><path d="M12.95-14.22L12.95 0L9.54 0L4.50-8.85L4.50 0L1.07 0L1.07-14.22L4.50-14.22L9.53-5.37L9.53-14.22L12.95-14.22ZM14.56-4.82L14.55-5.38Q14.55-6.96 15.17-8.20Q15.78-9.43 16.93-10.10Q18.09-10.76 19.64-10.76L19.64-10.76Q22.01-10.76 23.38-9.29Q24.75-7.82 24.75-5.29L24.75-5.29L24.75-5.18Q24.75-2.71 23.37-1.25Q22.00 0.20 19.66 0.20L19.66 0.20Q17.40 0.20 16.04-1.16Q14.67-2.51 14.56-4.82L14.56-4.82ZM17.85-5.77L17.84-5.18Q17.84-3.71 18.30-3.03Q18.76-2.34 19.66-2.34L19.66-2.34Q21.42-2.34 21.46-5.05L21.46-5.05L21.46-5.38Q21.46-8.22 19.64-8.22L19.64-8.22Q17.99-8.22 17.85-5.77L17.85-5.77ZM26.74-13.19L30.03-13.19L30.03-10.57L31.77-10.57L31.77-8.28L30.03-8.28L30.03-3.45Q30.03-2.85 30.24-2.62Q30.46-2.38 31.09-2.38L31.09-2.38Q31.58-2.38 31.91-2.44L31.91-2.44L31.91-0.09Q31.03 0.20 30.06 0.20L30.06 0.20Q28.36 0.20 27.55-0.61Q26.74-1.41 26.74-3.04L26.74-3.04L26.74-8.28L25.39-8.28L25.39-10.57L26.74-10.57L26.74-13.19ZM38.17 0.20L38.17 0.20Q35.74 0.20 34.24-1.25Q32.73-2.71 32.73-5.03L32.73-5.03L32.73-5.30Q32.73-6.92 33.33-8.16Q33.94-9.40 35.09-10.08Q36.24-10.76 37.82-10.76L37.82-10.76Q40.05-10.76 41.34-9.38Q42.63-8.00 42.63-5.53L42.63-5.53L42.63-4.25L36.08-4.25Q36.26-3.36 36.86-2.85Q37.45-2.34 38.40-2.34L38.40-2.34Q39.96-2.34 40.84-3.44L40.84-3.44L42.34-1.66Q41.73-0.81 40.60-0.31Q39.47 0.20 38.17 0.20ZM37.80-8.22L37.80-8.22Q36.36-8.22 36.08-6.31L36.08-6.31L39.40-6.31L39.40-6.56Q39.42-7.35 39.00-7.79Q38.58-8.22 37.80-8.22ZM49.48-2.97L49.48-2.97Q49.48-3.39 49.04-3.64Q48.60-3.90 47.37-4.17Q46.14-4.44 45.34-4.89Q44.54-5.33 44.12-5.97Q43.70-6.60 43.70-7.42L43.70-7.42Q43.70-8.88 44.90-9.82Q46.10-10.76 48.05-10.76L48.05-10.76Q50.14-10.76 51.41-9.81Q52.68-8.87 52.68-7.32L52.68-7.32L49.38-7.32Q49.38-8.59 48.04-8.59L48.04-8.59Q47.52-8.59 47.17-8.31Q46.82-8.02 46.82-7.59L46.82-7.59Q46.82-7.15 47.25-6.88Q47.68-6.60 48.62-6.43Q49.56-6.25 50.27-6.01L50.27-6.01Q52.66-5.19 52.66-3.07L52.66-3.07Q52.66-1.62 51.37-0.71Q50.09 0.20 48.05 0.20L48.05 0.20Q46.69 0.20 45.63-0.29Q44.56-0.78 43.96-1.62Q43.37-2.46 43.37-3.39L43.37-3.39L46.45-3.39Q46.46-2.66 46.93-2.32Q47.40-1.98 48.13-1.98L48.13-1.98Q48.81-1.98 49.15-2.26Q49.48-2.53 49.48-2.97ZM68.23 0L67.40-2.66L62.71-2.66L61.88 0L58.22 0L63.44-14.22L66.66-14.22L71.91 0L68.23 0ZM65.05-10.23L63.53-5.30L66.58-5.30L65.05-10.23ZM82.14-5.36L82.14-5.21Q82.14-2.74 81.03-1.27Q79.92 0.20 78.04 0.20L78.04 0.20Q76.58 0.20 75.64-0.87L75.64-0.87L75.64 4.06L72.35 4.06L72.35-10.57L75.43-10.57L75.53-9.59Q76.47-10.76 78.02-10.76L78.02-10.76Q79.97-10.76 81.05-9.32Q82.14-7.88 82.14-5.36L82.14-5.36ZM78.85-5.06L78.85-5.41Q78.85-8.22 77.21-8.22L77.21-8.22Q76.04-8.22 75.64-7.38L75.64-7.38L75.64-3.22Q76.07-2.34 77.23-2.34L77.23-2.34Q78.80-2.34 78.85-5.06L78.85-5.06ZM93.40-5.36L93.40-5.21Q93.40-2.74 92.29-1.27Q91.18 0.20 89.30 0.20L89.30 0.20Q87.84 0.20 86.90-0.87L86.90-0.87L86.90 4.06L83.61 4.06L83.61-10.57L86.69-10.57L86.79-9.59Q87.73-10.76 89.28-10.76L89.28-10.76Q91.23-10.76 92.31-9.32Q93.40-7.88 93.40-5.36L93.40-5.36ZM90.11-5.06L90.11-5.41Q90.11-8.22 88.47-8.22L88.47-8.22Q87.29-8.22 86.90-7.38L86.90-7.38L86.90-3.22Q87.33-2.34 88.49-2.34L88.49-2.34Q90.06-2.34 90.11-5.06L90.11-5.06Z"></path></g></g></svg><style>@media (prefers-color-scheme: light) { :root { filter: none; } }
@media (prefers-color-scheme: dark) { :root { filter: none; } }
</style></svg>